<?xml version="1.0" encoding="UTF-8"?>
<!DOCTYPE svg PUBLIC "-//W3C//DTD SVG 1.1//EN" "http://www.w3.org/Graphics/SVG/1.1/DTD/svg11.dtd">
<svg xmlns="http://www.w3.org/2000/svg" version="1.1" width="534px" height="298px" style="shape-rendering:geometricPrecision; text-rendering:geometricPrecision; image-rendering:optimizeQuality; fill-rule:evenodd; clip-rule:evenodd" xmlns:xlink="http://www.w3.org/1999/xlink">
<g><path style="opacity:1" fill="#fefefe" d="M -0.5,-0.5 C 177.5,-0.5 355.5,-0.5 533.5,-0.5C 533.5,98.8333 533.5,198.167 533.5,297.5C 355.5,297.5 177.5,297.5 -0.5,297.5C -0.5,198.167 -0.5,98.8333 -0.5,-0.5 Z"/></g>
<g><path style="opacity:1" fill="#ea4335" d="M 133.5,150.5 C 112.555,138.691 91.5546,126.857 70.5,115C 66.0538,113.597 61.5538,112.43 57,111.5C 52.4798,112.122 47.9798,112.789 43.5,113.5C 87.7395,87.1308 132.406,61.2975 177.5,36C 194.216,31.3044 208.716,35.1377 221,47.5C 231.207,62.1475 232.207,77.4808 224,93.5C 220.833,98 217,101.833 212.5,105C 186.139,120.178 159.806,135.345 133.5,150.5 Z"/></g>
<g><path style="opacity:1" fill="#129d58" d="M 472.5,188.5 C 464.79,189.956 457.124,189.789 449.5,188C 427.339,175.978 405.339,163.811 383.5,151.5C 356.395,135.108 329.061,118.941 301.5,103C 286.131,87.985 283.298,70.8184 293,51.5C 305.613,34.7399 321.779,29.9066 341.5,37C 389.5,64.6667 437.5,92.3333 485.5,120C 504.353,138.724 505.353,158.391 488.5,179C 483.785,183.217 478.451,186.384 472.5,188.5 Z"/></g>
<g><path style="opacity:1" fill="#4385f3" d="M 133.5,150.5 C 160.331,166.47 187.331,182.303 214.5,198C 231.268,213.521 234.101,231.355 223,251.5C 211.337,265.72 196.504,270.554 178.5,266C 127.221,237.697 76.7215,208.197 27,177.5C 10.9873,155.296 13.4873,135.463 34.5,118C 37.4111,116.239 40.4111,114.739 43.5,113.5C 47.9798,112.789 52.4798,112.122 57,111.5C 61.5538,112.43 66.0538,113.597 70.5,115C 91.5546,126.857 112.555,138.691 133.5,150.5 Z"/></g>
<g><path style="opacity:1" fill="#fabc07" d="M 383.5,151.5 C 405.339,163.811 427.339,175.978 449.5,188C 457.124,189.789 464.79,189.956 472.5,188.5C 429.054,214.731 385.054,240.231 340.5,265C 316.307,272.149 299.141,264.316 289,241.5C 284.031,223.409 288.864,208.575 303.5,197C 330.059,181.557 356.725,166.39 383.5,151.5 Z"/></g>
</svg>
